<?xml version="1.0" encoding="utf-8"?>
<!-- Generator: Adobe Illustrator 23.0.2, SVG Export Plug-In . SVG Version: 6.00 Build 0)  -->
<svg version="1.1" id="Layer_1" xmlns="http://www.w3.org/2000/svg" xmlns:xlink="http://www.w3.org/1999/xlink" x="0px" y="0px"
	 viewBox="0 0 956.6146 956.614" enable-background="new 0 0 956.6146 956.614" xml:space="preserve">
<g>
	<path d="M451.2611,76.3986v44.8915v18.9395v98c0,6.8301,5.5371,12.3633,12.3633,12.3633c6.8281,0,12.3652-5.5332,12.3652-12.3633
		v-90.2715h4.6348v90.2715c0,6.8301,5.5371,12.3633,12.3633,12.3633c6.8281,0,12.3652-5.5332,12.3652-12.3633v-98v-18.9395V76.3992
		l54.3581-63.1812c2.8818-3.3496,2.502-8.4004-0.8467-11.2822c-3.3516-2.8823-8.4023-2.5015-11.2822,0.8467L494.82,64.1085h-33.0254
		L409.0324,2.7824c-2.8809-3.3481-7.9307-3.729-11.2822-0.8467c-3.3486,2.8818-3.7285,7.9326-0.8467,11.2822L451.2611,76.3986z"/>
	<circle cx="478.307" cy="35.9103" r="22.5"/>
	<path d="M397.7502,954.6784c1.5107,1.2993,3.3672,1.9355,5.2139,1.9355c2.25,0,4.4863-0.9434,6.0684-2.7822l52.7622-61.3261H494.82
		l52.7622,61.3261c1.582,1.8389,3.8184,2.7822,6.0684,2.7822c1.8467,0,3.7031-0.6362,5.2139-1.9355
		c3.3486-2.8818,3.7285-7.9326,0.8467-11.2822l-54.3576-63.1805V835.324v-18.9395v-98c0-6.8301-5.5371-12.3633-12.3633-12.3633
		c-6.8281,0-12.3652,5.5332-12.3652,12.3633v90.2715h-4.6348v-90.2715c0-6.8301-5.5371-12.3633-12.363-12.3633
		c-6.8284,0-12.3655,5.5332-12.3655,12.3633v98v18.9395v44.8909l-54.3582,63.1813
		C394.0216,946.7458,394.4015,951.7966,397.7502,954.6784z"/>
	<circle cx="478.3075" cy="920.7038" r="22.5"/>
	<path d="M175.2648,116.2297l78.6655,27.5373l31.9155,55.2795c0,0.0001,0.0002,0.0002,0.0002,0.0004l48.9998,84.8701
		c3.415,5.915,10.9771,7.9384,16.8887,4.5253c5.9133-3.4141,7.9419-10.9745,4.5269-16.8895l-45.1357-78.1774l4.0139-2.3174
		l45.1357,78.1774c3.415,5.915,10.9768,7.9384,16.8884,4.5253c5.9136-3.4141,7.9421-10.9745,4.5271-16.8895l-49-84.8704
		c0-0.0001,0-0.0001,0-0.0001l-9.0984-15.7589l-0.3713-0.6432l0,0l-22.4465-38.8782l15.4854-81.8944
		c0.8213-4.3413-2.0322-8.5264-6.374-9.3472c-4.3369-0.8193-8.5254,2.0337-9.3467,6.3745l-15.0308,79.491l-28.6008,16.5126
		l-76.3557-26.7288c-4.1699-1.459-8.7344,0.7378-10.1943,4.9077S171.0949,114.7697,175.2648,116.2297z"/>
	
		<ellipse transform="matrix(0.6687 -0.7435 0.7435 0.6687 14.413 222.7067)" cx="257.1087" cy="95.1804" rx="22.5001" ry="22.4999"/>
	<path d="M781.3497,840.3845l-78.6655-27.5373l-31.9155-55.2795c0-0.0001-0.0002-0.0002-0.0002-0.0004l-48.9998-84.8701
		c-3.415-5.915-10.9771-7.9384-16.8887-4.5253c-5.9131,3.4141-7.9419,10.9745-4.5269,16.8895l45.1357,78.1774l-4.0137,2.3174
		l-45.136-78.1774c-3.415-5.915-10.9768-7.9384-16.8884-4.5253c-5.9133,3.4141-7.9421,10.9745-4.5271,16.8896l48.9998,84.8701
		c0.0002,0.0001,0.0002,0.0002,0.0002,0.0004l31.9163,55.2802l-15.4854,81.8945c-0.8213,4.3413,2.0322,8.5264,6.374,9.3472
		c0.502,0.0947,1.002,0.1406,1.4951,0.1406c3.7695,0,7.126-2.6763,7.8516-6.5151l15.0308-79.491l28.6008-16.5126l76.3557,26.7288
		c0.875,0.3062,1.7666,0.4512,2.6436,0.4512c3.3047,0,6.3975-2.063,7.5508-5.3589
		C787.7169,846.4084,785.5197,841.8444,781.3497,840.3845z"/>
	
		<ellipse transform="matrix(0.8477 -0.5305 0.5305 0.8477 -350.4443 502.2943)" cx="699.5059" cy="861.4338" rx="22.4999" ry="22.5"/>
	<path d="M33.3312,316.4011c0.4932,0,0.9932-0.0459,1.4951-0.1406l81.8945-15.4852l38.8772,22.4458
		c0.0002,0.0001,0.0002,0.0002,0.0005,0.0002L256.871,381.691c5.915,3.415,13.4756,1.3864,16.8887-4.5253
		c3.4141-5.9133,1.3906-13.4752-4.5244-16.8902l-78.1775-45.1358l2.3174-4.0139l78.1775,45.1358
		c5.915,3.415,13.4756,1.3864,16.8884-4.5252c3.4143-5.9134,1.3909-13.4753-4.5242-16.8903l-84.8701-48.9998
		c0-0.0001-0.0002-0.0002-0.0002-0.0002l-55.2791-31.9153l-27.5378-78.666c-1.46-4.1709-6.0225-6.3677-10.1943-4.9077
		c-4.1699,1.46-6.3672,6.0239-4.9072,10.1938l26.7292,76.3561l-16.5127,28.6009l-79.491,15.0308
		c-4.3418,0.8208-7.1953,5.0059-6.374,9.3472C26.2052,313.7253,29.5617,316.4011,33.3312,316.4011z"/>
	<ellipse transform="matrix(0.8471 -0.5314 0.5314 0.8471 -122.0836 89.8944)" cx="95.1803" cy="257.1089" rx="22.5" ry="22.5"/>
	<path d="M921.7882,640.3537l-81.8945,15.4852l-38.8772-22.4458c-0.0002-0.0001-0.0002-0.0002-0.0002-0.0002l-101.2727-58.4697
		c-5.915-3.415-13.4753-1.3864-16.8884,4.5253c-3.4141,5.9133-1.3909,13.4752,4.5242,16.8903l78.1775,45.1357l-2.3174,4.0139
		l-78.1775-45.1357c-5.915-3.415-13.4753-1.3864-16.8884,4.5252c-3.4141,5.9134-1.3909,13.4752,4.5242,16.8903l101.2727,58.4698
		c0,0.0001,0,0.0001,0.0002,0.0001l38.8765,22.4455l27.5378,78.6659c1.1533,3.2959,4.2461,5.3589,7.5508,5.3589
		c0.877,0,1.7686-0.145,2.6436-0.4512c4.1699-1.46,6.3672-6.0239,4.9072-10.1938l-26.7292-76.3561l16.5129-28.6009l79.4907-15.0308
		c4.3418-0.8208,7.1953-5.0059,6.374-9.3472C930.3146,642.3864,926.1281,639.5368,921.7882,640.3537z"/>
	<ellipse transform="matrix(0.9975 -0.0705 0.0705 0.9975 -47.1912 62.4995)" cx="861.4342" cy="699.5052" rx="22.5" ry="22.5"/>
	<path d="M1.9357,558.864c1.582,1.8389,3.8184,2.7822,6.0684,2.7822c1.8467,0,3.7031-0.6362,5.2139-1.9355l63.1804-54.3574h44.8918
		h18.9397h98c6.8301,0,12.3633-5.5371,12.3633-12.3633c0-6.8281-5.5332-12.3652-12.3633-12.3652h-90.2715v-4.6348h90.2715
		c6.8301,0,12.3633-5.5371,12.3633-12.3632c0-6.8282-5.5332-12.3653-12.3633-12.3653h-98h-18.9397H76.3988l-63.1809-54.3579
		c-3.3516-2.8823-8.4023-2.5015-11.2822,0.8467c-2.8818,3.3496-2.502,8.4004,0.8467,11.2822l61.3264,52.7623v33.0247
		L2.7824,547.5817C-0.5663,550.4636-0.9461,555.5143,1.9357,558.864z"/>
	<circle cx="35.9105" cy="478.3073" r="22.5"/>
	<path d="M953.8322,547.5817l-61.3262-52.7623v-33.0248l61.3262-52.7623c3.3486-2.8818,3.7285-7.9326,0.8467-11.2822
		c-2.8809-3.3481-7.9316-3.729-11.2822-0.8467l-63.1804,54.3574h-44.8918h-18.9395h-98c-6.8303,0-12.3633,5.5371-12.3633,12.3633
		c0,6.8281,5.533,12.3652,12.3633,12.3652h90.2715v4.6348h-90.2715c-6.8303,0-12.3633,5.5371-12.3633,12.3632
		c0,6.8282,5.533,12.3653,12.3633,12.3653h98h18.9395h44.8914l63.1809,54.3579c1.5107,1.2993,3.3672,1.9355,5.2139,1.9355
		c2.25,0,4.4863-0.9434,6.0684-2.7822C957.5607,555.5143,957.1808,550.4636,953.8322,547.5817z"/>
	<circle cx="920.704" cy="478.3068" r="22.5"/>
	<path d="M199.0468,670.7685c0-0.0001,0.0002-0.0002,0.0002-0.0002l84.8701-48.9998c5.915-3.4151,7.9385-10.9769,4.5254-16.8886
		c-3.4141-5.9133-10.9746-7.942-16.8896-4.5269l-78.1773,45.1357l-2.3174-4.0139l78.1773-45.1357
		c5.915-3.415,7.9385-10.9769,4.5254-16.8885c-3.4141-5.9134-10.9746-7.9421-16.8896-4.527l-84.8701,48.9998
		c0,0.0001-0.0002,0.0001-0.0002,0.0002l-55.2793,31.9155l-81.8953-15.4854c-4.3398-0.8193-8.5264,2.0337-9.3467,6.3745
		c-0.8213,4.3413,2.0322,8.5264,6.374,9.3472l79.491,15.0308l16.5127,28.6008l-26.7292,76.3562
		c-1.46,4.1699,0.7373,8.7339,4.9072,10.1938c0.875,0.3062,1.7666,0.4512,2.6436,0.4512c3.3047,0,6.3975-2.0635,7.5508-5.3589
		l27.5376-78.6652L199.0468,670.7685z"/>
	<ellipse transform="matrix(0.2588 -0.9659 0.9659 0.2588 -605.1245 610.3973)" cx="95.1806" cy="699.5057" rx="22.5" ry="22.5"/>
	<path d="M773.9706,276.3756c-0.0002,0.0001-0.0005,0.0002-0.0007,0.0003l-101.2725,58.4698
		c-5.915,3.415-7.9385,10.9769-4.5254,16.8885c3.4141,5.9133,10.9746,7.942,16.8896,4.5269l78.1775-45.1357l2.3174,4.0139
		L687.379,360.275c-5.915,3.4151-7.9385,10.9769-4.5254,16.8885c3.4141,5.9134,10.9746,7.9421,16.8896,4.527l101.2725-58.4697
		c0.0002-0.0001,0.0005-0.0002,0.0005-0.0002l38.877-22.4456l81.895,15.4854c0.502,0.0947,1.002,0.1406,1.4951,0.1406
		c3.7695,0,7.126-2.6763,7.8516-6.5151c0.8213-4.3413-2.0322-8.5264-6.374-9.3472l-79.491-15.0308l-16.5127-28.6009l26.7292-76.3561
		c1.46-4.1699-0.7373-8.7339-4.9072-10.1938c-4.1709-1.4585-8.7344,0.7383-10.1943,4.9077l-27.5376,78.6653L773.9706,276.3756z"/>
	<ellipse transform="matrix(0.0232 -0.9997 0.9997 0.0232 584.4026 1112.3435)" cx="861.434" cy="257.1085" rx="22.5" ry="22.5"/>
	<path d="M285.5085,845.2699l15.0308,79.491c0.7256,3.8394,4.082,6.5151,7.8516,6.5151c0.4932,0,0.9932-0.0459,1.4951-0.1406
		c4.3418-0.8208,7.1953-5.0059,6.374-9.3472l-15.4851-81.8936l31.9165-55.2808c0-0.0001,0-0.0002,0.0002-0.0004l48.9998-84.8701
		c3.415-5.915,1.3862-13.4755-4.5254-16.8885c-5.9133-3.4141-13.4751-1.3907-16.8901,4.5243L315.14,765.5565l-4.0139-2.3174
		l45.1357-78.1774c3.415-5.915,1.3862-13.4755-4.5251-16.8885c-5.9133-3.4141-13.4753-1.3907-16.8904,4.5243l-48.9998,84.8701
		c0,0.0001-0.0002,0.0002-0.0002,0.0004l-31.9153,55.279l-78.6663,27.5375c-4.1699,1.46-6.3672,6.0239-4.9072,10.1938
		c1.1533,3.2959,4.2461,5.3589,7.5508,5.3589c0.877,0,1.7686-0.145,2.6436-0.4512l76.3557-26.7288L285.5085,845.2699z"/>
	
		<ellipse transform="matrix(0.5644 -0.8255 0.8255 0.5644 -599.1163 587.4784)" cx="257.1091" cy="861.434" rx="22.5" ry="22.4999"/>
	<path d="M579.4486,273.7594c5.9133,3.414,13.4753,1.3907,16.8904-4.5244l45.1357-78.1774l4.0137,2.3174l-45.1357,78.1774
		c-3.415,5.915-1.3862,13.4755,4.5254,16.8885c5.9133,3.4141,13.4751,1.3907,16.8901-4.5243l58.4697-101.2725
		c0-0.0001,0-0.0001,0-0.0001l22.4458-38.8768l78.666-27.5375c4.1699-1.46,6.3672-6.0239,4.9072-10.1938
		c-1.46-4.1704-6.0234-6.3687-10.1943-4.9077l-76.3557,26.7288l-28.6008-16.5126l-15.0308-79.491
		c-0.8203-4.3418-5.0049-7.1909-9.3467-6.3745c-4.3418,0.8208-7.1953,5.0059-6.374,9.3472l15.4851,81.8936l-31.9163,55.2808
		c-0.0002,0.0003-0.0005,0.0005-0.0005,0.0009l-48.9995,84.8696C571.5084,262.7858,573.537,270.3463,579.4486,273.7594z"/>
	<ellipse transform="matrix(0.9659 -0.2588 0.2588 0.9659 -0.7993 184.2889)" cx="699.5055" cy="95.1801" rx="22.5" ry="22.5"/>
</g>
</svg>
